<?xml version="1.0" standalone="no"?>
<!DOCTYPE svg PUBLIC "-//W3C//DTD SVG 20010904//EN"
 "http://www.w3.org/TR/2001/REC-SVG-20010904/DTD/svg10.dtd">
<svg version="1.0" xmlns="http://www.w3.org/2000/svg"
 width="2048.000000pt" height="2048.000000pt" viewBox="0 0 2048.000000 2048.000000"
 preserveAspectRatio="xMidYMid meet">
<metadata>
Created by potrace 1.11, written by Peter Selinger 2001-2013
</metadata>
<g transform="translate(0.000000,2048.000000) scale(0.100000,-0.100000)"
fill="#000000" stroke="none">
<path d="M10909 15679 c-655 -29 -1299 -195 -1904 -488 -618 -300 -1140 -697
-1614 -1226 -643 -717 -1096 -1639 -1290 -2620 -212 -1077 -114 -2195 282
-3212 372 -952 987 -1771 1782 -2367 695 -522 1519 -860 2355 -966 781 -98
1559 -10 2303 261 338 123 730 319 1024 513 201 132 474 344 647 503 l68 62
-267 321 c-147 176 -269 320 -272 320 -3 0 -43 -34 -89 -75 -688 -612 -1513
-976 -2419 -1066 -166 -17 -583 -17 -745 -1 -791 80 -1515 363 -2148 840 -217
163 -537 467 -713 677 -628 748 -1005 1675 -1090 2680 -15 178 -15 587 0 775
47 588 206 1176 460 1705 338 701 828 1286 1448 1729 566 403 1196 651 1898
747 214 29 659 37 885 15 973 -93 1846 -501 2568 -1200 l129 -126 105 108 c99
101 333 350 428 455 l43 47 -134 131 c-829 812 -1849 1306 -2959 1433 -128 15
-506 37 -580 34 -19 0 -110 -4 -201 -9z"/>
</g>
</svg>
