<svg viewBox="0 0 1565 1306" fill="none"
  xmlns="http://www.w3.org/2000/svg">
  <rect width="1237" height="206" rx="16" fill="#6A6A6F" fill-opacity=".6"/>
  <path d="M1026.36 161H71.638c-5.739 0-11.243-1.844-15.3-5.126C52.28 152.592 50 148.141 50 143.5c0-4.641 2.28-9.092 6.338-12.374 4.057-3.282 9.561-5.126 15.3-5.126h954.722c5.74 0 11.24 1.844 15.3 5.126 4.06 3.282 6.34 7.733 6.34 12.374 0 4.641-2.28 9.092-6.34 12.374-4.06 3.282-9.56 5.126-15.3 5.126ZM715.362 88H71.639c-5.74 0-11.243-1.791-15.301-4.98C52.28 79.834 50 75.51 50 71c0-4.509 2.28-8.833 6.338-12.02C60.396 55.79 65.9 54 71.638 54h643.724c5.738 0 11.242 1.791 15.3 4.98C734.72 62.166 737 66.49 737 71c0 4.509-2.28 8.833-6.338 12.02-4.058 3.189-9.562 4.98-15.3 4.98Z" fill="#6A6A6F" fill-opacity=".8"/>
  <rect y="294" width="1237" height="206" rx="16" fill="#D9D9D9" fill-opacity=".1"/>
  <rect y="587" width="1237" height="206" rx="16" fill="#D9D9D9" fill-opacity=".1"/>
  <path d="m1552.04 556.738-10.14-157.902a25.575 25.575 0 0 0-8.48-17.381 25.315 25.315 0 0 0-18.17-6.405 25.246 25.246 0 0 0-9.91 2.594 25.36 25.36 0 0 0-8.09 6.318 25.549 25.549 0 0 0-4.95 9.015 25.749 25.749 0 0 0-1.01 10.248l15.54 163.697 5.26 99.868a22.23 22.23 0 0 0-9.68 9.223 22.365 22.365 0 0 0 2.65 25.441 22.17 22.17 0 0 0 11.38 7.006c4.41 1.105 9.06.817 13.31-.826a22.167 22.167 0 0 0 10.43-8.358 22.436 22.436 0 0 0 3.78-12.864 22.42 22.42 0 0 0-4.26-12.711l12.34-116.963ZM1381.09 1234.47h-28.03l-13.34-106.94h41.37v106.94Z" fill="#A0616A"/>
  <path d="M1395.92 1282.87h-19.98l-3.57-18.93-9.13 18.93h-52.99c-2.54 0-5.01-.81-7.06-2.32a12.015 12.015 0 0 1-4.31-6.07c-.75-2.44-.71-5.05.11-7.46.83-2.41 2.41-4.49 4.5-5.94l42.31-29.33v-19.13l44.51 2.66 5.61 67.59Z" fill="#2F2E41"/>
  <path d="m1530.19 1210.3-25.91 10.12-51.38-95.12 38.23-14.94 39.06 99.94Z" fill="#A0616A"/>
  <path d="m1561.41 1249.51-18.6 7.22-10.19-16.16-1.64 20.76-49.34 19.17a12 12 0 0 1-7.42.41c-2.45-.65-4.63-2.07-6.22-4.04a11.9 11.9 0 0 1-2.6-6.92c-.1-2.52.61-5.01 2.03-7.1l28.77-42.36-6.94-17.65 42.41-13.64 29.74 60.31Z" fill="#2F2E41"/>
  <path d="M1512.82 541.288h-129.58s-48.79 349.219-48.93 349.854c-.14.636 27.54 10.722 14.96 23.329l-12.59 12.608c-10.06 10.086 7.47 44.55 7.47 44.55l-20.05 205.081h82.82l40.48-423.615-54.76 203.088 71.34 220.527 51.36-30.26 10.06-27.74-19.99-20.03s-5.17-30.12-5.17-47.91c0-17.79 15.1-2.66 0-17.79-6.53-6.54-24.92-86.858-24.92-86.858l60.15-193.027 14.33-86.166c3.68-22.21.37-45.02-9.49-65.252-7.97-16.376-18.01-37.823-27.49-60.389Z" fill="#102B24"/>
  <path d="m1520.4 327.737-8.6-25.877a30.399 30.399 0 0 0-10.29-14.51 30.27 30.27 0 0 0-16.61-6.254l-7.64-.476a30.267 30.267 0 0 0-19.13 5.342 30.403 30.403 0 0 0-11.74 16.073 30.374 30.374 0 0 1-9.87 14.695 30.203 30.203 0 0 1-16.37 6.65c-22.32 1.909-55.46 8.683-55.46 32.082 0 35.286 37.67 128.542 30.14 136.103-7.53 7.561-25.11 38.719-15.07 47.888 2.62 2.389.51 13.878-.33 22.108-1.52 14.904 103.3-18.047 133.43-9.506 30.14 8.542 15.07-55.449 20.09-60.49 4.72-5.768 8.92-11.94 12.56-18.443a30.414 30.414 0 0 0 3.71-9.693l8.65-43.936c.14-.731.26-1.448.35-2.188 1.14-9.404 7.83-72.678-17.73-82.006-27.63-10.082-20.09-7.562-20.09-7.562Z" fill="#CCC"/>
  <path d="m1231.64 264.179 115.01 108.603a25.57 25.57 0 0 0 18.09 6.911 25.522 25.522 0 0 0 17.73-7.754 25.377 25.377 0 0 0 5.53-8.683c1.24-3.24 1.8-6.696 1.65-10.16-.14-3.463-.99-6.86-2.5-9.984a25.417 25.417 0 0 0-6.24-8.187l-122.93-109.149-71.91-69.472a22.254 22.254 0 0 0-6.14-24.819 22.288 22.288 0 0 0-34.67 7.018 22.297 22.297 0 0 0-1.99 13.257 22.308 22.308 0 0 0 5.99 11.996 22.3 22.3 0 0 0 11.79 6.39l70.59 94.033Z" fill="#A0616A"/>
  <path d="M1313.37 360.821a7.619 7.619 0 0 0 1.56 4.575 7.518 7.518 0 0 0 3.99 2.679 9.723 9.723 0 0 1 4.92 3.331c.24.312.46.64.66.982a14.795 14.795 0 0 0 4.72 5.184 14.514 14.514 0 0 0 6.56 2.389c7.72.714 15.8 5.455 22.22 10.467 7.03 5.484 13.87 11.436 21.99 15.06 11.72 5.227 27.06 4.924 34.14-9.517a30.107 30.107 0 0 0 2.03-19.868c-3.17-13.973-13.37-24.415-23.24-34.31l5.8 1.988a113.993 113.993 0 0 1-25.65-37.474c-1.92 2.875-6.8 1.343-8.33-1.76-1.53-3.104-.91-6.782-.69-10.243.28-4.362-.54-9.583-5.78-10.519a9.144 9.144 0 0 0-7.13 1.96c-19.06 14.835-34.87 33.496-46.45 54.808-2.57 4.735-4.99 10.149-3.6 15.366 1.38 5.217 8.55 8.774 12.28 4.902Z" fill="#CCC"/>
  <path d="M1477.49 274.317c30.4 0 55.04-24.814 55.04-55.424 0-30.609-24.64-55.423-55.04-55.423-30.39 0-55.03 24.814-55.03 55.423 0 30.61 24.64 55.424 55.03 55.424Z" fill="#A0616A"/>
  <path d="M1560.88 272.01c-2.87-5.819-12-5.139-16.66-.604-4.63 4.534-6.31 11.185-8.93 17.105-2.61 5.945-7.32 11.966-13.78 12.218-6.14.226-11.1-4.762-16.83-6.928-6.47-2.444-13.56-1.159-20.1 1.36-.15-.63-.3-1.259-.5-1.864a40.627 40.627 0 0 0-4.05-9.27 31.09 31.09 0 0 1-1.51 9.472 29.06 29.06 0 0 1-2.47 5.567c-6.26 3.174-12.45 6.575-19.34 7.709-8.36 1.41-18.34-1.713-21.49-9.624-2.31-5.844-.25-12.646 3.27-17.911 3.52-5.24 8.35-9.447 12.3-14.359a44.461 44.461 0 0 0 8.53-15.641 44.535 44.535 0 0 0 1.71-17.738 33.269 33.269 0 0 0-5.62-14.564c-3-4.34-6.99-7.905-11.63-10.401a70.59 70.59 0 0 1-15.05 3.628 39.758 39.758 0 0 0-4.05-9.271 30.777 30.777 0 0 1-1.51 9.472 19.647 19.647 0 0 1-12.93-5.114c-7.54-7.154-6.84-19.649-2.51-29.121a49.849 49.849 0 0 1 14.42-18.352 49.712 49.712 0 0 1 21.19-9.76 49.737 49.737 0 0 1 43.6 12.468c8.28-10.832 24.88-12.545 37.21-6.701 12.3 5.87 20.85 17.559 26.92 29.776a130.648 130.648 0 0 1 9.81 88.448Z" fill="#1D1D1D"/>
  <path d="M1006.45 1287h551.1c.39 0 .76-.32 1.03-.88s.42-1.32.42-2.12-.15-1.56-.42-2.12-.64-.88-1.03-.88h-551.1c-.39 0-.76.32-1.03.88s-.42 1.32-.42 2.12.15 1.56.42 2.12.64.88 1.03.88Z" fill="#C8C8C8" fill-opacity=".4"/>
</svg>
