<svg width="47" height="50" viewBox="0 0 47 50" fill="none" xmlns="http://www.w3.org/2000/svg">
<path d="M39.8414 7.32233C36.6187 3.87027 32.523 1.50447 28.0598 0.516877C23.5965 -0.470711 18.9609 -0.0368642 14.7252 1.76488C10.4894 3.56662 6.8388 6.6574 4.22385 10.6558C1.6089 14.6542 0.144057 19.3853 0.0100857 24.2651C-0.123885 29.1449 1.07888 33.96 3.46995 38.1161C5.86103 42.2722 9.33577 45.5875 13.4654 47.6528C17.595 49.718 22.1987 50.4429 26.7084 49.738C31.2182 49.0331 35.4366 46.9292 38.843 43.686L36.3945 40.7351C33.526 43.4661 29.9738 45.2377 26.1763 45.8313C22.3787 46.4249 18.502 45.8145 15.0246 44.0754C11.5471 42.3363 8.6211 39.5446 6.60763 36.0448C4.59416 32.545 3.58133 28.4904 3.69415 24.3812C3.80696 20.272 5.04048 16.288 7.24247 12.9211C9.44446 9.55409 12.5186 6.95141 16.0854 5.4342C19.6523 3.917 23.5557 3.55166 27.3142 4.38329C31.0726 5.21492 34.5215 7.20711 37.2352 10.114L39.8414 7.32233Z" fill="#88FFB8"/>
</svg>
