<svg width="201" height="50" viewBox="0 0 201 50" fill="none" xmlns="http://www.w3.org/2000/svg">
<path d="M38.9518 7.38981C35.8011 3.9994 31.7969 1.67584 27.4333 0.705889C23.0697 -0.264063 18.5376 0.162036 14.3964 1.9316C10.2552 3.70117 6.68611 6.73676 4.12954 10.6638C1.57298 14.5908 0.140841 19.2373 0.00986051 24.03C-0.121119 28.8227 1.05479 33.5518 3.39248 37.6337C5.73017 41.7156 9.12733 44.9717 13.1647 47.0001C17.2021 49.0284 21.7031 49.7404 26.1121 49.0481C30.5212 48.3557 34.6454 46.2894 37.9758 43.1041L35.582 40.2059C32.7775 42.8882 29.3046 44.6282 25.5918 45.2112C21.8791 45.7942 18.0889 45.1946 14.6891 43.4866C11.2893 41.7785 8.42862 39.0367 6.4601 35.5994C4.49159 32.1621 3.50138 28.1799 3.61167 24.144C3.72197 20.1082 4.92794 16.1954 7.08077 12.8886C9.2336 9.58173 12.2391 7.02552 15.7263 5.53541C19.2135 4.04529 23.0298 3.68648 26.7043 4.50326C30.3789 5.32004 33.7507 7.27665 36.4039 10.1316L38.9518 7.38981Z" fill="#575757"/>
<path d="M49.3849 49.3056C48.9219 49.3056 48.5516 49.1667 48.2738 48.8889C47.996 48.6111 47.8571 48.2407 47.8571 47.7778V1.52778C47.8571 1.06482 47.996 0.694445 48.2738 0.416665C48.5516 0.138888 48.9219 0 49.3849 0H50.5654C51.0284 0 51.3988 0.138888 51.6766 0.416665C51.9543 0.694445 52.0932 1.06482 52.0932 1.52778V47.7778C52.0932 48.2407 51.9543 48.6111 51.6766 48.8889C51.3988 49.1667 51.0284 49.3056 50.5654 49.3056H49.3849Z" fill="#575757"/>
<path d="M77.1355 50C72.3207 50 68.5707 48.5417 65.8855 45.625C63.2467 42.662 61.8578 38.8426 61.7189 34.1667L61.6494 31.25L61.7189 28.3333C61.8578 23.6574 63.2467 19.8611 65.8855 16.9444C68.5707 13.9815 72.3207 12.5 77.1355 12.5C81.9504 12.5 85.6772 13.9815 88.3161 16.9444C91.0013 19.8611 92.4133 23.6574 92.5522 28.3333C92.5985 28.7963 92.6217 29.7685 92.6217 31.25C92.6217 32.7315 92.5985 33.7037 92.5522 34.1667C92.4133 38.8426 91.0013 42.662 88.3161 45.625C85.6772 48.5417 81.9504 50 77.1355 50ZM77.1355 45.9722C80.4226 45.9722 83.0615 44.9306 85.0522 42.8472C87.0892 40.7176 88.1772 37.7083 88.3161 33.8194C88.3624 33.3565 88.3855 32.5 88.3855 31.25C88.3855 30 88.3624 29.1435 88.3161 28.6806C88.1772 24.7917 87.0892 21.8056 85.0522 19.7222C83.0615 17.5926 80.4226 16.5278 77.1355 16.5278C73.8485 16.5278 71.1865 17.5926 69.1494 19.7222C67.1587 21.8056 66.0939 24.7917 65.955 28.6806L65.8855 31.25L65.955 33.8194C66.0939 37.7083 67.1587 40.7176 69.1494 42.8472C71.1865 44.9306 73.8485 45.9722 77.1355 45.9722Z" fill="#575757"/>
<path d="M118.081 50C112.989 50 109.1 48.1713 106.415 44.5139V47.7778C106.415 48.2407 106.276 48.6111 105.998 48.8889C105.72 49.1667 105.35 49.3056 104.887 49.3056H103.706C103.243 49.3056 102.873 49.1667 102.595 48.8889C102.317 48.6111 102.178 48.2407 102.178 47.7778V1.52778C102.178 1.06482 102.317 0.694445 102.595 0.416665C102.873 0.138888 103.243 0 103.706 0H104.887C105.35 0 105.72 0.138888 105.998 0.416665C106.276 0.694445 106.415 1.06482 106.415 1.52778V17.9861C109.146 14.3287 113.035 12.5 118.081 12.5C123.081 12.5 126.762 14.1435 129.123 17.4306C131.53 20.6713 132.803 24.6296 132.942 29.3056C132.989 29.7685 133.012 30.4167 133.012 31.25C133.012 32.0833 132.989 32.7315 132.942 33.1944C132.803 37.8704 131.53 41.8518 129.123 45.1389C126.762 48.3796 123.081 50 118.081 50ZM117.665 45.9722C121.415 45.9722 124.146 44.7917 125.859 42.4306C127.618 40.0232 128.567 36.9444 128.706 33.1944C128.752 32.7315 128.776 32.0833 128.776 31.25C128.776 26.9444 127.942 23.4259 126.276 20.6944C124.609 17.9167 121.739 16.5278 117.665 16.5278C115.211 16.5278 113.151 17.1065 111.484 18.2639C109.817 19.4213 108.567 20.9028 107.734 22.7083C106.901 24.4676 106.461 26.3426 106.415 28.3333L106.345 31.0417L106.415 33.75C106.553 37.037 107.549 39.9074 109.401 42.3611C111.252 44.7685 114.007 45.9722 117.665 45.9722Z" fill="#575757"/>
<path d="M158.364 50C153.272 50 149.383 48.1713 146.698 44.5139V47.7778C146.698 48.2407 146.559 48.6111 146.281 48.8889C146.003 49.1667 145.633 49.3056 145.17 49.3056H143.989C143.526 49.3056 143.156 49.1667 142.878 48.8889C142.6 48.6111 142.462 48.2407 142.462 47.7778V1.52778C142.462 1.06482 142.6 0.694445 142.878 0.416665C143.156 0.138888 143.526 0 143.989 0H145.17C145.633 0 146.003 0.138888 146.281 0.416665C146.559 0.694445 146.698 1.06482 146.698 1.52778V17.9861C149.429 14.3287 153.318 12.5 158.364 12.5C163.364 12.5 167.045 14.1435 169.406 17.4306C171.813 20.6713 173.087 24.6296 173.225 29.3056C173.272 29.7685 173.295 30.4167 173.295 31.25C173.295 32.0833 173.272 32.7315 173.225 33.1944C173.087 37.8704 171.813 41.8518 169.406 45.1389C167.045 48.3796 163.364 50 158.364 50ZM157.948 45.9722C161.698 45.9722 164.429 44.7917 166.142 42.4306C167.901 40.0232 168.85 36.9444 168.989 33.1944C169.036 32.7315 169.059 32.0833 169.059 31.25C169.059 26.9444 168.225 23.4259 166.559 20.6944C164.892 17.9167 162.022 16.5278 157.948 16.5278C155.494 16.5278 153.434 17.1065 151.767 18.2639C150.1 19.4213 148.85 20.9028 148.017 22.7083C147.184 24.4676 146.744 26.3426 146.698 28.3333L146.628 31.0417L146.698 33.75C146.837 37.037 147.832 39.9074 149.684 42.3611C151.536 44.7685 154.29 45.9722 157.948 45.9722Z" fill="#575757"/>
<path d="M184.203 49.3056C183.74 49.3056 183.37 49.1667 183.092 48.8889C182.814 48.6111 182.675 48.2407 182.675 47.7778V14.7917C182.675 14.3287 182.814 13.9583 183.092 13.6806C183.37 13.3565 183.74 13.1944 184.203 13.1944H185.314C185.777 13.1944 186.148 13.3565 186.425 13.6806C186.749 13.9583 186.911 14.3287 186.911 14.7917V17.9861C188.578 14.7917 191.726 13.1944 196.356 13.1944H198.925C199.388 13.1944 199.759 13.3333 200.036 13.6111C200.314 13.8889 200.453 14.2593 200.453 14.7222V15.6944C200.453 16.1574 200.314 16.5278 200.036 16.8056C199.759 17.0833 199.388 17.2222 198.925 17.2222H195.939C193.161 17.2222 190.962 18.0324 189.342 19.6528C187.722 21.2732 186.911 23.4722 186.911 26.25V47.7778C186.911 48.2407 186.749 48.6111 186.425 48.8889C186.148 49.1667 185.777 49.3056 185.314 49.3056H184.203Z" fill="#575757"/>
</svg>
