<svg width="50" height="50" viewBox="0 0 50 50" fill="none" xmlns="http://www.w3.org/2000/svg">
<rect x="12.1594" width="0.921474" height="50" fill="#82E7AA"/>
<rect x="24.5392" width="0.921474" height="50" fill="#82E7AA"/>
<rect x="36.9191" width="0.921478" height="50" fill="#82E7AA"/>
<rect x="50" y="12.1594" width="0.921467" height="50" transform="rotate(90 50 12.1594)" fill="#82E7AA"/>
<rect x="50" y="24.5393" width="0.921468" height="50" transform="rotate(90 50 24.5393)" fill="#82E7AA"/>
<rect x="50" y="36.9189" width="0.921529" height="50" transform="rotate(90 50 36.9189)" fill="#82E7AA"/>
<path d="M40.9192 11.4194C38.4325 8.75572 35.2722 6.93018 31.8282 6.16813C28.3841 5.40607 24.8072 5.74084 21.5387 7.13113C18.2703 8.52141 15.4533 10.9064 13.4355 13.9917C11.4178 17.077 10.2874 20.7276 10.1841 24.4931C10.0807 28.2585 11.0088 31.974 12.8538 35.181C14.6988 38.388 17.3801 40.9462 20.5666 42.5398C23.7532 44.1334 27.3056 44.6928 30.7854 44.1489C34.2653 43.6049 37.5204 41.9815 40.1489 39.4789L38.2596 37.2019C36.0461 39.3092 33.3051 40.6763 30.3748 41.1343C27.4445 41.5924 24.4531 41.1214 21.7697 39.7794C19.0864 38.4374 16.8286 36.2833 15.2749 33.5827C13.7213 30.8822 12.9398 27.7534 13.0268 24.5826C13.1139 21.4118 14.0657 18.3377 15.7648 15.7396C17.4639 13.1416 19.836 11.1332 22.5883 9.96251C25.3406 8.79178 28.3527 8.50987 31.2528 9.15159C34.153 9.7933 36.8143 11.3305 38.9083 13.5736L40.9192 11.4194Z" fill="#575757"/>
</svg>
