<svg viewBox="0 0 1805 1718" fill="none"
  xmlns="http://www.w3.org/2000/svg">
  <path d="M64.3622 1101H1740.64C1757.7 1100.98 1774.06 1093.04 1786.13 1078.92C1798.19 1064.81 1804.98 1045.67 1805 1025.7V75.2964C1804.98 55.3334 1798.19 36.1945 1786.13 22.0786C1774.06 7.96264 1757.7 0.0224802 1740.64 0H64.3622C47.2982 0.022489 30.9386 7.96275 18.8726 22.0787C6.80649 36.1946 0.0192902 55.3334 6.69956e-05 75.2964V1025.7C0.0192902 1045.67 6.80649 1064.81 18.8726 1078.92C30.9386 1093.04 47.2982 1100.98 64.3622 1101Z" fill="#6A6A6F" fill-opacity="0.05"/>
  <mask id="mask0_155_305" style="mask-type:alpha" maskUnits="userSpaceOnUse" x="0" y="0" width="1805" height="1101">
    <path d="M64.3622 1101H1740.64C1757.7 1100.98 1774.06 1093.04 1786.13 1078.92C1798.19 1064.81 1804.98 1045.67 1805 1025.7V75.2964C1804.98 55.3334 1798.19 36.1945 1786.13 22.0786C1774.06 7.96264 1757.7 0.0224802 1740.64 0H64.3622C47.2982 0.022489 30.9386 7.96275 18.8726 22.0787C6.80649 36.1946 0.0192902 55.3334 6.69956e-05 75.2964V1025.7C0.0192902 1045.67 6.80649 1064.81 18.8726 1078.92C30.9386 1093.04 47.2982 1100.98 64.3622 1101Z" fill="#6A6A6F" fill-opacity="0.05"/>
  </mask>
  <g mask="url(#mask0_155_305)">
    <path opacity="0.2" d="M3.39966e-05 711.951C54.1106 655.989 144.52 645.468 222.216 662.433C299.912 679.398 369.666 719.093 441.908 751.278C514.15 783.464 594.361 808.847 672.622 794.45C748.194 780.548 810.623 731.94 875.439 692.257C940.255 652.574 1019.22 619.876 1092.51 642.328C1183.23 670.118 1225.03 767.254 1290.2 833.711C1323.87 868.058 1365.05 894.889 1410.8 912.296C1456.54 929.702 1505.74 937.257 1554.88 934.424C1604.02 931.591 1651.91 918.439 1695.14 895.903C1738.37 873.367 1775.88 842 1805 804.032V1101H4.75396L3.39966e-05 711.951Z" fill="var(--primary-light)"/>
  </g>
  <path d="M1803.82 807.205C1726.71 911.436 1593.4 964.966 1465.89 939.876C1401.71 927.23 1342.43 896.585 1294.98 851.513C1252.16 810.513 1222.71 758.265 1184.76 713.146C1166.38 691.294 1145.82 670.838 1121.05 656.305C1092.73 639.876 1060.08 632.491 1027.46 635.136C954.488 640.438 891.814 684.017 833.001 723.538C775.844 761.946 715.694 799.284 645.204 804.029C571.042 809.021 498.931 781.812 433.081 750.507C365.688 718.468 299.99 680.334 226.679 663.279C166.951 649.384 99.0059 652.013 45.3992 684.372C32.5124 692.193 20.7613 701.751 10.4762 712.776C5.00936 718.596 -3.72937 709.825 1.72546 704.018C43.1421 659.927 104.098 642.287 163.27 643.094C232.316 644.036 297.109 670.53 358.424 700.086C426.577 732.939 493.505 770.696 568.402 785.94C605.544 794.129 644.009 794.244 681.199 786.275C715.321 778.359 746.975 762.846 776.896 744.95C837.091 708.948 891.55 663.383 957.941 638.626C1018.96 615.874 1085.66 615.505 1140.36 654.038C1187.45 687.211 1218.81 737.353 1252.63 782.859C1270.11 807.383 1290.05 830.056 1312.14 850.524C1337.52 872.986 1366.19 891.421 1397.15 905.185C1458.37 932.751 1526.63 940.664 1592.53 927.834C1656.42 914.857 1715.13 883.497 1761.47 837.6C1772.93 826.202 1783.51 813.952 1793.13 800.954C1797.82 794.618 1808.56 800.788 1803.82 807.205Z" fill="var(--primary-light)"/>
  <path d="M494.862 1718H1585.14C1585.9 1718 1586.63 1717.68 1587.16 1717.12C1587.7 1716.56 1588 1715.8 1588 1715C1588 1714.2 1587.7 1713.44 1587.16 1712.88C1586.63 1712.32 1585.9 1712 1585.14 1712H494.862C494.103 1712 493.375 1712.32 492.838 1712.88C492.302 1713.44 492 1714.2 492 1715C492 1715.8 492.302 1716.56 492.838 1717.12C493.375 1717.68 494.103 1718 494.862 1718Z" fill="#C8C8C8" fill-opacity="0.2"/>
  <path d="M1249.91 296H508.089C493.213 296 478.947 290.1 468.428 279.598C457.909 269.096 452 254.852 452 240C452 225.148 457.909 210.904 468.428 200.402C478.947 189.9 493.213 184 508.089 184H1249.91C1264.79 184 1279.05 189.9 1289.57 200.402C1300.09 210.904 1306 225.148 1306 240C1306 254.852 1300.09 269.096 1289.57 279.598C1279.05 290.1 1264.79 296 1249.91 296V296Z" fill="#c8c8c8" fill-opacity="0.3"/>
  <path d="M837.341 249H530.659C528.097 249 525.641 247.946 523.829 246.071C522.018 244.196 521 241.652 521 239C521 236.348 522.018 233.804 523.829 231.929C525.641 230.054 528.097 229 530.659 229H837.341C839.903 229 842.359 230.054 844.171 231.929C845.982 233.804 847 236.348 847 239C847 241.652 845.982 244.196 844.171 246.071C842.359 247.946 839.903 249 837.341 249V249Z" fill="white"/>
  <path d="M1403 780.792L1390.01 578.513C1389.44 569.945 1385.53 561.948 1379.14 556.248C1372.76 550.547 1364.39 547.6 1355.86 548.044V548.044C1351.45 548.273 1347.13 549.403 1343.17 551.366C1339.2 553.329 1335.68 556.083 1332.81 559.46C1329.93 562.837 1327.78 566.766 1326.47 571.009C1325.15 575.251 1324.72 579.718 1325.18 584.136L1345.08 793.839L1351.82 921.774C1346.58 924.339 1342.25 928.464 1339.42 933.589C1336.59 938.715 1335.39 944.592 1336 950.423C1336.61 956.254 1338.99 961.755 1342.81 966.18C1346.64 970.605 1351.73 973.738 1357.39 975.154C1363.04 976.571 1369 976.201 1374.44 974.097C1379.88 971.992 1384.55 968.253 1387.81 963.39C1391.06 958.526 1392.75 952.772 1392.64 946.911C1392.53 941.049 1390.63 935.364 1387.19 930.627L1403 780.792Z" fill="#A0616A"/>
  <path d="M1184 1649H1148.09L1131 1512H1184L1184 1649Z" fill="#A0616A"/>
  <path d="M1203 1711H1177.41L1172.84 1686.75L1161.14 1711H1093.26C1090.01 1711 1086.84 1709.96 1084.22 1708.02C1081.6 1706.09 1079.66 1703.36 1078.69 1700.24C1077.72 1697.13 1077.77 1693.78 1078.83 1690.69C1079.9 1687.61 1081.91 1684.94 1084.59 1683.09L1138.8 1645.52V1621L1195.81 1624.42L1203 1711Z" fill="#000"/>
  <path d="M1375 1618.03L1341.82 1631L1276 1509.15L1324.97 1490L1375 1618.03Z" fill="#A0616A"/>
  <path d="M1415 1668.26L1391.17 1677.52L1378.12 1656.8L1376.02 1683.4L1312.81 1707.96C1309.78 1709.14 1306.45 1709.32 1303.31 1708.48C1300.17 1707.65 1297.38 1705.83 1295.34 1703.31C1293.31 1700.78 1292.14 1697.68 1292.01 1694.45C1291.88 1691.22 1292.79 1688.03 1294.61 1685.35L1331.46 1631.09L1322.57 1608.48L1376.9 1591L1415 1668.26Z" fill="#000"/>
  <path d="M1352.76 761H1186.76C1186.76 761 1124.25 1208.36 1124.07 1209.18C1123.89 1209.99 1159.35 1222.91 1143.23 1239.06L1127.12 1255.21C1114.22 1268.13 1136.69 1312.28 1136.69 1312.28L1111 1575H1217.09L1268.95 1032.33L1198.8 1292.5L1290.19 1575L1355.98 1536.24L1368.87 1500.71L1343.26 1475.04C1343.26 1475.04 1336.64 1436.46 1336.64 1413.67C1336.64 1390.88 1355.98 1410.26 1336.64 1390.88C1328.27 1382.5 1304.71 1279.61 1304.71 1279.61L1381.77 1032.33L1400.12 921.952C1404.85 893.5 1400.6 864.28 1387.97 838.361C1377.76 817.383 1364.9 789.908 1352.76 761Z" fill="#102B24"/>
  <path d="M1362.46 487.434L1351.45 454.284C1349 446.908 1344.41 440.435 1338.27 435.696C1332.13 430.956 1324.72 428.167 1316.99 427.685L1307.2 427.075C1298.5 426.533 1289.87 428.943 1282.69 433.918C1275.52 438.894 1270.22 446.146 1267.65 454.508V454.508C1265.4 461.906 1260.99 468.461 1255 473.332C1249.02 478.204 1241.71 481.17 1234.04 481.852C1205.44 484.297 1163 492.975 1163 522.95C1163 568.153 1211.26 687.617 1201.61 697.304C1191.95 706.99 1169.43 746.905 1182.3 758.65C1185.66 761.711 1182.95 776.428 1181.88 786.971C1179.93 806.064 1314.2 763.852 1352.81 774.794C1391.42 785.736 1372.11 703.761 1378.55 697.304C1384.59 689.914 1389.97 682.008 1394.64 673.677C1396.92 669.842 1398.52 665.642 1399.38 661.261L1410.46 604.976C1410.65 604.039 1410.79 603.122 1410.91 602.174C1412.37 590.127 1420.94 509.07 1388.2 497.12C1352.81 484.205 1362.46 487.434 1362.46 487.434Z" fill="#CCCCCC"/>
  <path d="M992.547 406.013L1139.89 545.137C1146.15 551.013 1154.47 554.193 1163.05 553.991C1171.64 553.789 1179.8 550.221 1185.78 544.057V544.057C1188.87 540.869 1191.28 537.084 1192.86 532.934C1194.44 528.784 1195.16 524.356 1194.97 519.92C1194.78 515.483 1193.69 511.131 1191.77 507.129C1189.84 503.127 1187.12 499.559 1183.78 496.642L1026.29 356.817L934.179 267.821C936.292 262.355 936.67 256.371 935.262 250.683C933.854 244.995 930.729 239.878 926.31 236.027C921.891 232.176 916.394 229.779 910.564 229.16C904.735 228.541 898.856 229.731 893.727 232.568C888.597 235.405 884.466 239.752 881.894 245.017C879.322 250.283 878.435 256.213 879.351 262C880.268 267.788 882.945 273.153 887.019 277.367C891.093 281.581 896.365 284.439 902.12 285.553L992.547 406.013Z" fill="#A0616A"/>
  <path d="M1097.25 529.816C1097.26 531.939 1097.97 533.998 1099.25 535.676C1100.54 537.355 1102.33 538.561 1104.36 539.108C1106.85 539.831 1109.06 541.323 1110.67 543.375C1110.97 543.775 1111.25 544.195 1111.51 544.633C1112.97 547.307 1115.04 549.585 1117.56 551.274C1120.07 552.963 1122.95 554.012 1125.96 554.334C1135.85 555.248 1146.2 561.322 1154.43 567.742C1163.43 574.768 1172.19 582.393 1182.59 587.035C1197.6 593.731 1217.26 593.343 1226.33 574.843C1230.06 566.914 1230.98 557.926 1228.93 549.392C1224.87 531.491 1211.8 518.115 1199.16 505.439L1206.59 507.987C1192.55 494.385 1181.38 478.057 1173.73 459.981C1171.27 463.663 1165.02 461.701 1163.06 457.725C1161.1 453.749 1161.89 449.037 1162.18 444.604C1162.54 439.016 1161.48 432.328 1154.77 431.129C1153.16 430.887 1151.51 430.986 1149.94 431.418C1148.37 431.85 1146.9 432.607 1145.63 433.64C1121.23 452.645 1100.97 476.549 1086.13 503.851C1082.84 509.917 1079.74 516.853 1081.52 523.536C1083.29 530.218 1092.48 534.776 1097.25 529.816Z" fill="#CCCCCC"/>
  <path d="M1307.5 419C1346.44 419 1378 387.212 1378 348C1378 308.788 1346.44 277 1307.5 277C1268.56 277 1237 308.788 1237 348C1237 387.212 1268.56 419 1307.5 419Z" fill="#A0616A"/>
  <path d="M1414.32 416.045C1410.64 408.59 1398.95 409.462 1392.98 415.27C1387.05 421.079 1384.9 429.599 1381.54 437.183C1378.19 444.799 1372.17 452.512 1363.88 452.834C1356.02 453.125 1349.67 446.735 1342.32 443.96C1334.04 440.829 1324.95 442.475 1316.58 445.702C1316.38 444.896 1316.19 444.089 1315.93 443.314C1314.71 439.152 1312.97 435.161 1310.74 431.438C1310.73 435.559 1310.08 439.653 1308.81 443.572C1308.01 446.055 1306.95 448.445 1305.65 450.704C1297.63 454.771 1289.7 459.127 1280.87 460.58C1270.17 462.387 1257.38 458.385 1253.35 448.252C1250.38 440.765 1253.03 432.052 1257.54 425.307C1262.05 418.594 1268.24 413.205 1273.3 406.912C1278.25 401.039 1281.97 394.224 1284.22 386.875C1286.47 379.527 1287.22 371.797 1286.41 364.152C1285.52 357.45 1283.05 351.055 1279.21 345.495C1275.36 339.935 1270.26 335.369 1264.31 332.171C1258.07 334.423 1251.61 335.982 1245.03 336.818C1243.81 332.656 1242.07 328.665 1239.85 324.943C1239.84 329.063 1239.18 333.157 1237.91 337.077C1231.78 336.986 1225.89 334.657 1221.35 330.526C1211.68 321.36 1212.58 305.354 1218.13 293.22C1222.34 284.028 1228.67 275.971 1236.6 269.71C1244.54 263.449 1253.84 259.164 1263.75 257.207C1273.66 255.25 1283.89 255.678 1293.6 258.455C1303.31 261.231 1312.22 266.278 1319.61 273.179C1330.21 259.302 1351.48 257.108 1367.27 264.595C1383.03 272.114 1393.98 287.088 1401.75 302.74C1419.07 337.865 1423.52 377.969 1414.32 416.045V416.045Z" fill="#000000"/>
</svg>
