<?xml version="1.0" standalone="no"?>
<!DOCTYPE svg PUBLIC "-//W3C//DTD SVG 20010904//EN"
 "http://www.w3.org/TR/2001/REC-SVG-20010904/DTD/svg10.dtd">
<svg version="1.0" xmlns="http://www.w3.org/2000/svg"
 width="2048.000000pt" height="2048.000000pt" viewBox="0 0 2048.000000 2048.000000"
 preserveAspectRatio="xMidYMid meet">
<metadata>
Created by potrace 1.14, written by Peter Selinger 2001-2017
</metadata>
<g transform="translate(0.000000,2048.000000) scale(0.100000,-0.100000)"
fill="#000000" stroke="none">
<path d="M9920 15674 c-19 -2 -87 -9 -150 -15 -286 -27 -680 -111 -978 -208
-1752 -574 -3073 -2126 -3461 -4066 -33 -166 -73 -433 -93 -625 -20 -196 -17
-913 5 -1110 124 -1102 489 -2044 1112 -2875 160 -214 283 -354 489 -560 840
-839 1898 -1334 3048 -1426 196 -15 688 -7 868 15 991 121 1895 528 2650 1192
58 50 120 108 139 127 l34 36 -263 320 c-144 177 -264 321 -266 321 -3 0 -50
-40 -104 -89 -585 -525 -1261 -864 -1995 -1000 -229 -43 -337 -53 -640 -58
-403 -7 -648 19 -995 103 -1406 343 -2559 1444 -3050 2914 -159 478 -237 932
-247 1456 -8 387 17 697 83 1039 360 1860 1734 3286 3459 3590 77 13 206 31
287 40 172 18 567 20 738 4 814 -74 1587 -400 2240 -945 52 -43 165 -147 250
-231 l156 -152 254 276 c140 152 267 290 282 308 l27 32 -152 153 c-251 251
-484 443 -772 634 -648 432 -1325 682 -2115 782 -118 15 -748 28 -840 18z"/>
</g>
</svg>
